<mxfile host="app.diagrams.net" agent="Mozilla/5.0 (Windows NT 10.0; Win64; x64) AppleWebKit/537.36 (KHTML, like Gecko) Chrome/140.0.0.0 Safari/537.36" version="28.2.5">
  <diagram name="Pagina-1" id="4_A5HrGLSW-UDN1cAMAc">
    <mxGraphModel dx="1869" dy="562" grid="1" gridSize="10" guides="1" tooltips="1" connect="1" arrows="1" fold="1" page="1" pageScale="1" pageWidth="827" pageHeight="1169" math="0" shadow="0">
      <root>
        <mxCell id="0" />
        <mxCell id="1" parent="0" />
        <mxCell id="xfmIgKKNJkjASMow5dHe-1" value="AnnuncioImmobiliareConroller" style="shape=umlLifeline;perimeter=lifelinePerimeter;whiteSpace=wrap;html=1;container=1;dropTarget=0;collapsible=0;recursiveResize=0;outlineConnect=0;portConstraint=eastwest;newEdgeStyle={&quot;curved&quot;:0,&quot;rounded&quot;:0};" vertex="1" parent="1">
          <mxGeometry x="140" y="30" width="200" height="1490" as="geometry" />
        </mxCell>
        <mxCell id="xfmIgKKNJkjASMow5dHe-3" value="" style="html=1;points=[[0,0,0,0,5],[0,1,0,0,-5],[1,0,0,0,5],[1,1,0,0,-5]];perimeter=orthogonalPerimeter;outlineConnect=0;targetShapes=umlLifeline;portConstraint=eastwest;newEdgeStyle={&quot;curved&quot;:0,&quot;rounded&quot;:0};" vertex="1" parent="xfmIgKKNJkjASMow5dHe-1">
          <mxGeometry x="95" y="80" width="10" height="1350" as="geometry" />
        </mxCell>
        <mxCell id="xfmIgKKNJkjASMow5dHe-2" value="&lt;font style=&quot;font-size: 12px;&quot;&gt;1: Nuovo annuncio(AnnuncioImmobiliareRequest request, List&amp;lt;MultiPartFile&amp;gt; immaginiList)&amp;nbsp;&lt;/font&gt;" style="html=1;verticalAlign=bottom;startArrow=oval;startFill=1;endArrow=block;startSize=8;curved=0;rounded=0;strokeWidth=1;jumpSize=14;" edge="1" parent="1" target="xfmIgKKNJkjASMow5dHe-3">
          <mxGeometry x="0.0035" y="10" width="60" relative="1" as="geometry">
            <mxPoint x="-260" y="120" as="sourcePoint" />
            <mxPoint x="230" y="120" as="targetPoint" />
            <mxPoint as="offset" />
          </mxGeometry>
        </mxCell>
        <mxCell id="xfmIgKKNJkjASMow5dHe-4" value="AnnuncioImmobileService" style="shape=umlLifeline;perimeter=lifelinePerimeter;whiteSpace=wrap;html=1;container=1;dropTarget=0;collapsible=0;recursiveResize=0;outlineConnect=0;portConstraint=eastwest;newEdgeStyle={&quot;curved&quot;:0,&quot;rounded&quot;:0};" vertex="1" parent="1">
          <mxGeometry x="520" y="30" width="170" height="1500" as="geometry" />
        </mxCell>
        <mxCell id="xfmIgKKNJkjASMow5dHe-5" value="" style="html=1;points=[[0,0,0,0,5],[0,1,0,0,-5],[1,0,0,0,5],[1,1,0,0,-5]];perimeter=orthogonalPerimeter;outlineConnect=0;targetShapes=umlLifeline;portConstraint=eastwest;newEdgeStyle={&quot;curved&quot;:0,&quot;rounded&quot;:0};" vertex="1" parent="xfmIgKKNJkjASMow5dHe-4">
          <mxGeometry x="80" y="70" width="10" height="1310" as="geometry" />
        </mxCell>
        <mxCell id="xfmIgKKNJkjASMow5dHe-6" value="&lt;font style=&quot;font-size: 12px;&quot;&gt;2: creaAnnuncioImmobiliare(request, immaginiList)&lt;/font&gt;" style="html=1;verticalAlign=bottom;endArrow=block;curved=0;rounded=0;" edge="1" parent="1" target="xfmIgKKNJkjASMow5dHe-4">
          <mxGeometry x="-0.0596" y="10" width="80" relative="1" as="geometry">
            <mxPoint x="250" y="160" as="sourcePoint" />
            <mxPoint x="551" y="160" as="targetPoint" />
            <mxPoint as="offset" />
          </mxGeometry>
        </mxCell>
        <mxCell id="xfmIgKKNJkjASMow5dHe-7" value="UserContex" style="shape=umlLifeline;perimeter=lifelinePerimeter;whiteSpace=wrap;html=1;container=1;dropTarget=0;collapsible=0;recursiveResize=0;outlineConnect=0;portConstraint=eastwest;newEdgeStyle={&quot;curved&quot;:0,&quot;rounded&quot;:0};" vertex="1" parent="1">
          <mxGeometry x="960" y="30" width="170" height="1520" as="geometry" />
        </mxCell>
        <mxCell id="xfmIgKKNJkjASMow5dHe-8" value="" style="html=1;points=[[0,0,0,0,5],[0,1,0,0,-5],[1,0,0,0,5],[1,1,0,0,-5]];perimeter=orthogonalPerimeter;outlineConnect=0;targetShapes=umlLifeline;portConstraint=eastwest;newEdgeStyle={&quot;curved&quot;:0,&quot;rounded&quot;:0};" vertex="1" parent="xfmIgKKNJkjASMow5dHe-7">
          <mxGeometry x="80" y="120" width="10" height="110" as="geometry" />
        </mxCell>
        <mxCell id="xfmIgKKNJkjASMow5dHe-9" value="getUserCurrent()" style="html=1;verticalAlign=bottom;endArrow=block;curved=0;rounded=0;" edge="1" parent="1" target="xfmIgKKNJkjASMow5dHe-7">
          <mxGeometry width="80" relative="1" as="geometry">
            <mxPoint x="610" y="200" as="sourcePoint" />
            <mxPoint x="690" y="200" as="targetPoint" />
          </mxGeometry>
        </mxCell>
        <mxCell id="xfmIgKKNJkjASMow5dHe-10" value="" style="endArrow=open;endSize=12;dashed=1;html=1;rounded=0;" edge="1" parent="1">
          <mxGeometry x="0.011" width="160" relative="1" as="geometry">
            <mxPoint x="1040" y="240" as="sourcePoint" />
            <mxPoint x="605.1363636363637" y="240" as="targetPoint" />
            <mxPoint as="offset" />
          </mxGeometry>
        </mxCell>
        <mxCell id="xfmIgKKNJkjASMow5dHe-12" value="&lt;span style=&quot;font-weight: normal;&quot;&gt;agenteImmobiliare&lt;/span&gt;" style="text;align=center;fontStyle=1;verticalAlign=middle;spacingLeft=3;spacingRight=3;strokeColor=none;rotatable=0;points=[[0,0.5],[1,0.5]];portConstraint=eastwest;html=1;" vertex="1" parent="1">
          <mxGeometry x="690" y="210" width="120" height="30" as="geometry" />
        </mxCell>
        <mxCell id="xfmIgKKNJkjASMow5dHe-15" value="AnnuncioImmobiliare: mappingFromRequestToAnnuncioImmobiliareEntity(request)" style="html=1;verticalAlign=bottom;endArrow=block;curved=0;rounded=0;" edge="1" parent="1" target="xfmIgKKNJkjASMow5dHe-4">
          <mxGeometry x="0.0605" y="130" width="80" relative="1" as="geometry">
            <mxPoint x="610" y="280" as="sourcePoint" />
            <mxPoint x="690" y="280" as="targetPoint" />
            <Array as="points">
              <mxPoint x="690" y="280" />
              <mxPoint x="690" y="360" />
            </Array>
            <mxPoint as="offset" />
          </mxGeometry>
        </mxCell>
        <mxCell id="xfmIgKKNJkjASMow5dHe-21" value="ImageUploaderService" style="shape=umlLifeline;perimeter=lifelinePerimeter;whiteSpace=wrap;html=1;container=1;dropTarget=0;collapsible=0;recursiveResize=0;outlineConnect=0;portConstraint=eastwest;newEdgeStyle={&quot;curved&quot;:0,&quot;rounded&quot;:0};" vertex="1" parent="1">
          <mxGeometry x="1370" y="30" width="170" height="1500" as="geometry" />
        </mxCell>
        <mxCell id="xfmIgKKNJkjASMow5dHe-22" value="" style="html=1;points=[[0,0,0,0,5],[0,1,0,0,-5],[1,0,0,0,5],[1,1,0,0,-5]];perimeter=orthogonalPerimeter;outlineConnect=0;targetShapes=umlLifeline;portConstraint=eastwest;newEdgeStyle={&quot;curved&quot;:0,&quot;rounded&quot;:0};" vertex="1" parent="xfmIgKKNJkjASMow5dHe-21">
          <mxGeometry x="80" y="400" width="10" height="590" as="geometry" />
        </mxCell>
        <mxCell id="xfmIgKKNJkjASMow5dHe-23" value="updateImmagineAnnunci(annuncio, request.getImmobile.getImmagini: List&amp;lt;Multipartfiles&amp;gt;)" style="html=1;verticalAlign=bottom;endArrow=block;curved=0;rounded=0;" edge="1" parent="1" target="xfmIgKKNJkjASMow5dHe-22">
          <mxGeometry x="-0.381" width="80" relative="1" as="geometry">
            <mxPoint x="610" y="440" as="sourcePoint" />
            <mxPoint x="690" y="440" as="targetPoint" />
            <mxPoint as="offset" />
          </mxGeometry>
        </mxCell>
        <mxCell id="xfmIgKKNJkjASMow5dHe-26" value="&lt;span style=&quot;font-weight: normal;&quot;&gt;[foreach files]&lt;/span&gt;" style="text;align=center;fontStyle=1;verticalAlign=middle;spacingLeft=3;spacingRight=3;strokeColor=none;rotatable=0;points=[[0,0.5],[1,0.5]];portConstraint=eastwest;html=1;" vertex="1" parent="1">
          <mxGeometry x="1470" y="480" width="80" height="26" as="geometry" />
        </mxCell>
        <mxCell id="xfmIgKKNJkjASMow5dHe-27" value="ImageContainerUtil" style="shape=umlLifeline;perimeter=lifelinePerimeter;whiteSpace=wrap;html=1;container=1;dropTarget=0;collapsible=0;recursiveResize=0;outlineConnect=0;portConstraint=eastwest;newEdgeStyle={&quot;curved&quot;:0,&quot;rounded&quot;:0};" vertex="1" parent="1">
          <mxGeometry x="2200" y="30" width="170" height="1520" as="geometry" />
        </mxCell>
        <mxCell id="xfmIgKKNJkjASMow5dHe-28" value="" style="html=1;points=[[0,0,0,0,5],[0,1,0,0,-5],[1,0,0,0,5],[1,1,0,0,-5]];perimeter=orthogonalPerimeter;outlineConnect=0;targetShapes=umlLifeline;portConstraint=eastwest;newEdgeStyle={&quot;curved&quot;:0,&quot;rounded&quot;:0};" vertex="1" parent="xfmIgKKNJkjASMow5dHe-27">
          <mxGeometry x="80" y="486" width="10" height="194" as="geometry" />
        </mxCell>
        <mxCell id="xfmIgKKNJkjASMow5dHe-30" value="salvaImmagine(file)" style="html=1;verticalAlign=bottom;endArrow=block;curved=0;rounded=0;" edge="1" parent="1">
          <mxGeometry x="-0.7805" width="80" relative="1" as="geometry">
            <mxPoint x="1460" y="560" as="sourcePoint" />
            <mxPoint x="2280" y="560" as="targetPoint" />
            <mxPoint as="offset" />
          </mxGeometry>
        </mxCell>
        <mxCell id="xfmIgKKNJkjASMow5dHe-31" value="url" style="html=1;verticalAlign=bottom;endArrow=open;dashed=1;endSize=8;curved=0;rounded=0;" edge="1" parent="1">
          <mxGeometry x="-0.8304" relative="1" as="geometry">
            <mxPoint x="2280" y="680" as="sourcePoint" />
            <mxPoint x="1454.6666666666665" y="680" as="targetPoint" />
            <mxPoint as="offset" />
          </mxGeometry>
        </mxCell>
        <mxCell id="xfmIgKKNJkjASMow5dHe-32" value="salvaFileToBlob(): url" style="html=1;verticalAlign=bottom;endArrow=block;curved=0;rounded=0;" edge="1" parent="1">
          <mxGeometry x="0.0569" width="80" relative="1" as="geometry">
            <mxPoint x="2290" y="570" as="sourcePoint" />
            <mxPoint x="2284" y="650" as="targetPoint" />
            <Array as="points">
              <mxPoint x="2370" y="570" />
              <mxPoint x="2370" y="650" />
            </Array>
            <mxPoint as="offset" />
          </mxGeometry>
        </mxCell>
        <mxCell id="xfmIgKKNJkjASMow5dHe-33" value="loop" style="shape=umlFrame;whiteSpace=wrap;html=1;pointerEvents=0;" vertex="1" parent="1">
          <mxGeometry x="1380" y="470" width="340" height="330" as="geometry" />
        </mxCell>
        <mxCell id="xfmIgKKNJkjASMow5dHe-34" value="immaginiUrls.add(url)" style="html=1;verticalAlign=bottom;endArrow=block;curved=0;rounded=0;" edge="1" parent="1">
          <mxGeometry x="0.0569" width="80" relative="1" as="geometry">
            <mxPoint x="1460" y="700" as="sourcePoint" />
            <mxPoint x="1454" y="780" as="targetPoint" />
            <Array as="points">
              <mxPoint x="1540" y="700" />
              <mxPoint x="1540" y="780" />
            </Array>
            <mxPoint as="offset" />
          </mxGeometry>
        </mxCell>
        <mxCell id="xfmIgKKNJkjASMow5dHe-35" value="annuncio.getImmobile.setImmagini(immaginiUrls)" style="html=1;verticalAlign=bottom;endArrow=block;curved=0;rounded=0;" edge="1" parent="1">
          <mxGeometry x="0.0569" y="60" width="80" relative="1" as="geometry">
            <mxPoint x="1460" y="840" as="sourcePoint" />
            <mxPoint x="1454" y="920" as="targetPoint" />
            <Array as="points">
              <mxPoint x="1540" y="840" />
              <mxPoint x="1540" y="920" />
            </Array>
            <mxPoint as="offset" />
          </mxGeometry>
        </mxCell>
        <mxCell id="xfmIgKKNJkjASMow5dHe-37" value="" style="html=1;verticalAlign=bottom;endArrow=open;dashed=1;endSize=8;curved=0;rounded=0;" edge="1" parent="1" target="xfmIgKKNJkjASMow5dHe-5">
          <mxGeometry x="-0.8304" relative="1" as="geometry">
            <mxPoint x="1445.3333333333335" y="960" as="sourcePoint" />
            <mxPoint x="620" y="960" as="targetPoint" />
            <mxPoint as="offset" />
          </mxGeometry>
        </mxCell>
        <mxCell id="xfmIgKKNJkjASMow5dHe-38" value="AnnuncioImmobiliareRepository" style="shape=umlLifeline;perimeter=lifelinePerimeter;whiteSpace=wrap;html=1;container=1;dropTarget=0;collapsible=0;recursiveResize=0;outlineConnect=0;portConstraint=eastwest;newEdgeStyle={&quot;curved&quot;:0,&quot;rounded&quot;:0};" vertex="1" parent="1">
          <mxGeometry x="2620" y="30" width="170" height="1480" as="geometry" />
        </mxCell>
        <mxCell id="xfmIgKKNJkjASMow5dHe-39" value="" style="html=1;points=[[0,0,0,0,5],[0,1,0,0,-5],[1,0,0,0,5],[1,1,0,0,-5]];perimeter=orthogonalPerimeter;outlineConnect=0;targetShapes=umlLifeline;portConstraint=eastwest;newEdgeStyle={&quot;curved&quot;:0,&quot;rounded&quot;:0};" vertex="1" parent="xfmIgKKNJkjASMow5dHe-38">
          <mxGeometry x="80" y="1150" width="10" height="190" as="geometry" />
        </mxCell>
        <mxCell id="xfmIgKKNJkjASMow5dHe-40" value="dispatch" style="html=1;verticalAlign=bottom;endArrow=block;curved=0;rounded=0;" edge="1" parent="1" target="xfmIgKKNJkjASMow5dHe-38">
          <mxGeometry width="80" relative="1" as="geometry">
            <mxPoint x="610" y="1200" as="sourcePoint" />
            <mxPoint x="690" y="1200" as="targetPoint" />
          </mxGeometry>
        </mxCell>
        <mxCell id="xfmIgKKNJkjASMow5dHe-41" value="query insert annuncio" style="html=1;verticalAlign=bottom;endArrow=block;curved=0;rounded=0;" edge="1" parent="1">
          <mxGeometry x="0.0569" width="80" relative="1" as="geometry">
            <mxPoint x="2710" y="1230" as="sourcePoint" />
            <mxPoint x="2704" y="1310" as="targetPoint" />
            <Array as="points">
              <mxPoint x="2790" y="1230" />
              <mxPoint x="2790" y="1310" />
            </Array>
            <mxPoint as="offset" />
          </mxGeometry>
        </mxCell>
        <mxCell id="xfmIgKKNJkjASMow5dHe-42" value="" style="html=1;verticalAlign=bottom;endArrow=open;dashed=1;endSize=8;curved=0;rounded=0;" edge="1" parent="1" target="xfmIgKKNJkjASMow5dHe-4">
          <mxGeometry x="-0.8304" relative="1" as="geometry">
            <mxPoint x="2697.6633333333334" y="1360" as="sourcePoint" />
            <mxPoint x="1872.33" y="1360" as="targetPoint" />
            <mxPoint as="offset" />
          </mxGeometry>
        </mxCell>
        <mxCell id="xfmIgKKNJkjASMow5dHe-43" value="" style="html=1;verticalAlign=bottom;endArrow=open;dashed=1;endSize=8;curved=0;rounded=0;" edge="1" parent="1" target="xfmIgKKNJkjASMow5dHe-1">
          <mxGeometry relative="1" as="geometry">
            <mxPoint x="600" y="1400" as="sourcePoint" />
            <mxPoint x="520" y="1400" as="targetPoint" />
          </mxGeometry>
        </mxCell>
      </root>
    </mxGraphModel>
  </diagram>
</mxfile>
